<?xml version="1.0" encoding="UTF-8" standalone="no"?>
<!DOCTYPE svg PUBLIC "-//W3C//DTD SVG 1.1//EN"
 "http://www.w3.org/Graphics/SVG/1.1/DTD/svg11.dtd">
<!-- Generated by graphviz version 14.0.2 (20251019.1705)
 -->
<!-- Title: DicekeeperCurrentUsecases Pages: 1 -->
<svg width="963pt" height="1192pt"
 viewBox="0.00 0.00 963.00 1192.00" xmlns="http://www.w3.org/2000/svg" xmlns:xlink="http://www.w3.org/1999/xlink">
<g id="graph0" class="graph" transform="scale(1 1) rotate(0) translate(4 1188)">
<title>DicekeeperCurrentUsecases</title>
<polygon fill="white" stroke="none" points="-4,4 -4,-1188 958.58,-1188 958.58,4 -4,4"/>
<g id="clust1" class="cluster">
<title>cluster_system</title>
<path fill="white" stroke="#90a4ae" stroke-width="1.5" d="M159.25,-122C159.25,-122 934.58,-122 934.58,-122 940.58,-122 946.58,-128 946.58,-134 946.58,-134 946.58,-1114 946.58,-1114 946.58,-1120 940.58,-1126 934.58,-1126 934.58,-1126 159.25,-1126 159.25,-1126 153.25,-1126 147.25,-1120 147.25,-1114 147.25,-1114 147.25,-134 147.25,-134 147.25,-128 153.25,-122 159.25,-122"/>
<text xml:space="preserve" text-anchor="middle" x="546.92" y="-1106.8" font-family="Arial Bold" font-size="16.00">Dicekeeper Web&#45;App &#45; aktueller Stand</text>
</g>
<!-- Guest -->
<g id="node1" class="node">
<title>Guest</title>
<path fill="#eef7ff" stroke="#29434e" stroke-width="1.2" d="M63.12,-1085C63.12,-1085 33.12,-1085 33.12,-1085 27.13,-1085 21.12,-1079 21.12,-1073 21.12,-1073 21.12,-1061 21.12,-1061 21.12,-1055 27.12,-1049 33.12,-1049 33.12,-1049 63.12,-1049 63.12,-1049 69.12,-1049 75.12,-1055 75.12,-1061 75.12,-1061 75.12,-1073 75.12,-1073 75.12,-1079 69.12,-1085 63.12,-1085"/>
<text xml:space="preserve" text-anchor="middle" x="48.12" y="-1063.3" font-family="Arial" font-size="11.00">Gast</text>
</g>
<!-- UCLogin -->
<g id="node6" class="node">
<title>UCLogin</title>
<ellipse fill="none" stroke="#29434e" stroke-width="1.2" cx="241.87" cy="-1067" rx="49.5" ry="24.75"/>
<text xml:space="preserve" text-anchor="middle" x="241.87" y="-1070.05" font-family="Arial" font-size="11.00">Einloggen /</text>
<text xml:space="preserve" text-anchor="middle" x="241.87" y="-1056.55" font-family="Arial" font-size="11.00">registrieren</text>
</g>
<!-- Guest&#45;&gt;UCLogin -->
<g id="edge1" class="edge">
<title>Guest&#45;&gt;UCLogin</title>
<path fill="none" stroke="#546e7a" d="M75.38,-1067C105.33,-1067 154.95,-1067 192.05,-1067"/>
</g>
<!-- Player -->
<g id="node2" class="node">
<title>Player</title>
<path fill="#eef7ff" stroke="#29434e" stroke-width="1.2" d="M63.12,-830C63.12,-830 33.12,-830 33.12,-830 27.13,-830 21.12,-824 21.12,-818 21.12,-818 21.12,-806 21.12,-806 21.12,-800 27.12,-794 33.12,-794 33.12,-794 63.12,-794 63.12,-794 69.12,-794 75.12,-800 75.12,-806 75.12,-806 75.12,-818 75.12,-818 75.12,-824 69.12,-830 63.12,-830"/>
<text xml:space="preserve" text-anchor="middle" x="48.12" y="-808.3" font-family="Arial" font-size="11.00">Spieler</text>
</g>
<!-- UCProfile -->
<g id="node7" class="node">
<title>UCProfile</title>
<ellipse fill="none" stroke="#29434e" stroke-width="1.2" cx="241.87" cy="-839" rx="67.53" ry="24.75"/>
<text xml:space="preserve" text-anchor="middle" x="241.87" y="-842.05" font-family="Arial" font-size="11.00">Profil und Avatar</text>
<text xml:space="preserve" text-anchor="middle" x="241.87" y="-828.55" font-family="Arial" font-size="11.00">verwalten</text>
</g>
<!-- Player&#45;&gt;UCProfile -->
<g id="edge3" class="edge">
<title>Player&#45;&gt;UCProfile</title>
<path fill="none" stroke="#546e7a" d="M75.38,-815.7C101.74,-819.41 143.34,-825.27 178.23,-830.18"/>
</g>
<!-- UCNotifications -->
<g id="node8" class="node">
<title>UCNotifications</title>
<ellipse fill="none" stroke="#29434e" stroke-width="1.2" cx="241.87" cy="-991" rx="78.67" ry="24.75"/>
<text xml:space="preserve" text-anchor="middle" x="241.87" y="-994.05" font-family="Arial" font-size="11.00">Benachrichtigungen</text>
<text xml:space="preserve" text-anchor="middle" x="241.87" y="-980.55" font-family="Arial" font-size="11.00">lesen</text>
</g>
<!-- Player&#45;&gt;UCNotifications -->
<g id="edge4" class="edge">
<title>Player&#45;&gt;UCNotifications</title>
<path fill="none" stroke="#546e7a" d="M61.95,-830.43C88.55,-868.65 147.25,-953 147.25,-953 147.25,-953 169.57,-962.06 192.41,-971.33"/>
</g>
<!-- UCCharacter -->
<g id="node9" class="node">
<title>UCCharacter</title>
<ellipse fill="none" stroke="#29434e" stroke-width="1.2" cx="241.87" cy="-687" rx="76.01" ry="24.75"/>
<text xml:space="preserve" text-anchor="middle" x="241.87" y="-690.05" font-family="Arial" font-size="11.00">Charakter erstellen</text>
<text xml:space="preserve" text-anchor="middle" x="241.87" y="-676.55" font-family="Arial" font-size="11.00">oder bearbeiten</text>
</g>
<!-- Player&#45;&gt;UCCharacter -->
<g id="edge5" class="edge">
<title>Player&#45;&gt;UCCharacter</title>
<path fill="none" stroke="#546e7a" d="M69.93,-793.55C98.74,-768.01 147.25,-725 147.25,-725 147.25,-725 169.93,-715.79 192.96,-706.45"/>
</g>
<!-- UCBrowseCampaigns -->
<g id="node11" class="node">
<title>UCBrowseCampaigns</title>
<ellipse fill="none" stroke="#29434e" stroke-width="1.2" cx="241.87" cy="-535" rx="52.68" ry="24.75"/>
<text xml:space="preserve" text-anchor="middle" x="241.87" y="-538.05" font-family="Arial" font-size="11.00">Kampagnen</text>
<text xml:space="preserve" text-anchor="middle" x="241.87" y="-524.55" font-family="Arial" font-size="11.00">ansehen</text>
</g>
<!-- Player&#45;&gt;UCBrowseCampaigns -->
<g id="edge6" class="edge">
<title>Player&#45;&gt;UCBrowseCampaigns</title>
<path fill="none" stroke="#546e7a" d="M56.66,-793.64C79.64,-737.68 147.25,-573 147.25,-573 147.25,-573 175.65,-561.47 201.17,-551.12"/>
</g>
<!-- UCJoinCampaign -->
<g id="node12" class="node">
<title>UCJoinCampaign</title>
<ellipse fill="none" stroke="#29434e" stroke-width="1.2" cx="241.87" cy="-763" rx="48.44" ry="24.75"/>
<text xml:space="preserve" text-anchor="middle" x="241.87" y="-766.05" font-family="Arial" font-size="11.00">Kampagne</text>
<text xml:space="preserve" text-anchor="middle" x="241.87" y="-752.55" font-family="Arial" font-size="11.00">beitreten</text>
</g>
<!-- Player&#45;&gt;UCJoinCampaign -->
<g id="edge7" class="edge">
<title>Player&#45;&gt;UCJoinCampaign</title>
<path fill="none" stroke="#546e7a" d="M75.38,-805.29C106.97,-797.22 160.44,-783.55 198.04,-773.95"/>
</g>
<!-- UCSubmitCharacter -->
<g id="node13" class="node">
<title>UCSubmitCharacter</title>
<ellipse fill="none" stroke="#29434e" stroke-width="1.2" cx="241.87" cy="-915" rx="85.56" ry="24.75"/>
<text xml:space="preserve" text-anchor="middle" x="241.87" y="-918.05" font-family="Arial" font-size="11.00">Charakter fuer</text>
<text xml:space="preserve" text-anchor="middle" x="241.87" y="-904.55" font-family="Arial" font-size="11.00">Kampagne einreichen</text>
</g>
<!-- Player&#45;&gt;UCSubmitCharacter -->
<g id="edge8" class="edge">
<title>Player&#45;&gt;UCSubmitCharacter</title>
<path fill="none" stroke="#546e7a" d="M75.68,-829.59C104.74,-848.84 147.25,-877 147.25,-877 147.25,-877 168.51,-885.63 190.77,-894.67"/>
</g>
<!-- UCLeaveCampaign -->
<g id="node14" class="node">
<title>UCLeaveCampaign</title>
<ellipse fill="none" stroke="#29434e" stroke-width="1.2" cx="241.87" cy="-611" rx="48.44" ry="24.75"/>
<text xml:space="preserve" text-anchor="middle" x="241.87" y="-614.05" font-family="Arial" font-size="11.00">Kampagne</text>
<text xml:space="preserve" text-anchor="middle" x="241.87" y="-600.55" font-family="Arial" font-size="11.00">verlassen</text>
</g>
<!-- Player&#45;&gt;UCLeaveCampaign -->
<g id="edge9" class="edge">
<title>Player&#45;&gt;UCLeaveCampaign</title>
<path fill="none" stroke="#546e7a" d="M60.19,-793.62C85.85,-750.99 147.25,-649 147.25,-649 147.25,-649 177.08,-636.89 203.06,-626.35"/>
</g>
<!-- UCPlayerView -->
<g id="node15" class="node">
<title>UCPlayerView</title>
<ellipse fill="none" stroke="#29434e" stroke-width="1.2" cx="529.42" cy="-903" rx="59.04" ry="24.75"/>
<text xml:space="preserve" text-anchor="middle" x="529.42" y="-906.05" font-family="Arial" font-size="11.00">Spieleransicht</text>
<text xml:space="preserve" text-anchor="middle" x="529.42" y="-892.55" font-family="Arial" font-size="11.00">verwenden</text>
</g>
<!-- Player&#45;&gt;UCPlayerView -->
<g id="edge10" class="edge">
<title>Player&#45;&gt;UCPlayerView</title>
<path fill="none" stroke="#546e7a" d="M55.26,-830.33C76.75,-894.47 147.25,-1105 147.25,-1105 147.25,-1105 328.49,-1105 328.49,-1105 328.49,-1105 452.97,-979.23 505.48,-926.17"/>
</g>
<!-- DM -->
<g id="node3" class="node">
<title>DM</title>
<path fill="#e8f5e9" stroke="#29434e" stroke-width="1.2" d="M84.25,-222C84.25,-222 12,-222 12,-222 6,-222 0,-216 0,-210 0,-210 0,-198 0,-198 0,-192 6,-186 12,-186 12,-186 84.25,-186 84.25,-186 90.25,-186 96.25,-192 96.25,-198 96.25,-198 96.25,-210 96.25,-210 96.25,-216 90.25,-222 84.25,-222"/>
<text xml:space="preserve" text-anchor="middle" x="48.12" y="-200.3" font-family="Arial" font-size="11.00">Dungeon Master</text>
</g>
<!-- UCCreateCampaign -->
<g id="node21" class="node">
<title>UCCreateCampaign</title>
<ellipse fill="none" stroke="#29434e" stroke-width="1.2" cx="241.87" cy="-155" rx="48.44" ry="24.75"/>
<text xml:space="preserve" text-anchor="middle" x="241.87" y="-158.05" font-family="Arial" font-size="11.00">Kampagne</text>
<text xml:space="preserve" text-anchor="middle" x="241.87" y="-144.55" font-family="Arial" font-size="11.00">erstellen</text>
</g>
<!-- DM&#45;&gt;UCCreateCampaign -->
<g id="edge18" class="edge">
<title>DM&#45;&gt;UCCreateCampaign</title>
<path fill="none" stroke="#546e7a" d="M96.52,-191.89C127.58,-183.95 167.83,-173.66 197.94,-165.97"/>
</g>
<!-- UCEditCampaign -->
<g id="node22" class="node">
<title>UCEditCampaign</title>
<ellipse fill="none" stroke="#29434e" stroke-width="1.2" cx="241.87" cy="-307" rx="86.62" ry="24.75"/>
<text xml:space="preserve" text-anchor="middle" x="241.87" y="-310.05" font-family="Arial" font-size="11.00">Kampagne bearbeiten</text>
<text xml:space="preserve" text-anchor="middle" x="241.87" y="-296.55" font-family="Arial" font-size="11.00">oder loeschen</text>
</g>
<!-- DM&#45;&gt;UCEditCampaign -->
<g id="edge19" class="edge">
<title>DM&#45;&gt;UCEditCampaign</title>
<path fill="none" stroke="#546e7a" d="M76.98,-222.45C105.99,-241.67 147.25,-269 147.25,-269 147.25,-269 168.34,-277.56 190.5,-286.55"/>
</g>
<!-- UCManagePlayers -->
<g id="node25" class="node">
<title>UCManagePlayers</title>
<ellipse fill="none" stroke="#29434e" stroke-width="1.2" cx="241.87" cy="-459" rx="44.19" ry="24.75"/>
<text xml:space="preserve" text-anchor="middle" x="241.87" y="-462.05" font-family="Arial" font-size="11.00">Spieler</text>
<text xml:space="preserve" text-anchor="middle" x="241.87" y="-448.55" font-family="Arial" font-size="11.00">verwalten</text>
</g>
<!-- DM&#45;&gt;UCManagePlayers -->
<g id="edge20" class="edge">
<title>DM&#45;&gt;UCManagePlayers</title>
<path fill="none" stroke="#546e7a" d="M57.49,-222.5C81.22,-274.98 147.25,-421 147.25,-421 147.25,-421 178.75,-433.79 205.21,-444.53"/>
</g>
<!-- UCReviewCharacters -->
<g id="node26" class="node">
<title>UCReviewCharacters</title>
<ellipse fill="none" stroke="#29434e" stroke-width="1.2" cx="834.46" cy="-155" rx="104.12" ry="24.75"/>
<text xml:space="preserve" text-anchor="middle" x="834.46" y="-158.05" font-family="Arial" font-size="11.00">Charaktere pruefen,</text>
<text xml:space="preserve" text-anchor="middle" x="834.46" y="-144.55" font-family="Arial" font-size="11.00">genehmigen oder ablehnen</text>
</g>
<!-- DM&#45;&gt;UCReviewCharacters -->
<g id="edge21" class="edge">
<title>DM&#45;&gt;UCReviewCharacters</title>
<path fill="none" stroke="#546e7a" d="M56.01,-185.54C74.75,-135.32 125.25,0 125.25,0 125.25,0 408.49,0 408.49,0 408.49,0 660.15,-91.79 776.15,-134.1"/>
</g>
<!-- UCStartCampaign -->
<g id="node27" class="node">
<title>UCStartCampaign</title>
<ellipse fill="none" stroke="#29434e" stroke-width="1.2" cx="241.87" cy="-383" rx="48.44" ry="24.75"/>
<text xml:space="preserve" text-anchor="middle" x="241.87" y="-386.05" font-family="Arial" font-size="11.00">Kampagne</text>
<text xml:space="preserve" text-anchor="middle" x="241.87" y="-372.55" font-family="Arial" font-size="11.00">starten</text>
</g>
<!-- DM&#45;&gt;UCStartCampaign -->
<g id="edge22" class="edge">
<title>DM&#45;&gt;UCStartCampaign</title>
<path fill="none" stroke="#546e7a" d="M61.95,-222.43C88.55,-260.65 147.25,-345 147.25,-345 147.25,-345 177.08,-357.11 203.06,-367.65"/>
</g>
<!-- UCCockpit -->
<g id="node28" class="node">
<title>UCCockpit</title>
<ellipse fill="none" stroke="#29434e" stroke-width="1.2" cx="529.42" cy="-157" rx="51.62" ry="24.75"/>
<text xml:space="preserve" text-anchor="middle" x="529.42" y="-160.05" font-family="Arial" font-size="11.00">DM&#45;Cockpit</text>
<text xml:space="preserve" text-anchor="middle" x="529.42" y="-146.55" font-family="Arial" font-size="11.00">nutzen</text>
</g>
<!-- DM&#45;&gt;UCCockpit -->
<g id="edge23" class="edge">
<title>DM&#45;&gt;UCCockpit</title>
<path fill="none" stroke="#546e7a" d="M56.15,-185.73C75,-136.71 125.25,-6 125.25,-6 125.25,-6 408.49,-6 408.49,-6 408.49,-6 476.3,-91.38 509.94,-133.74"/>
</g>
<!-- UCGMView -->
<g id="node29" class="node">
<title>UCGMView</title>
<ellipse fill="none" stroke="#29434e" stroke-width="1.2" cx="529.42" cy="-344" rx="52.15" ry="24.75"/>
<text xml:space="preserve" text-anchor="middle" x="529.42" y="-347.05" font-family="Arial" font-size="11.00">Spielsitzung</text>
<text xml:space="preserve" text-anchor="middle" x="529.42" y="-333.55" font-family="Arial" font-size="11.00">leiten</text>
</g>
<!-- DM&#45;&gt;UCGMView -->
<g id="edge24" class="edge">
<title>DM&#45;&gt;UCGMView</title>
<path fill="none" stroke="#546e7a" d="M61.16,-185.61C87.36,-145.55 147.25,-54 147.25,-54 147.25,-54 328.49,-54 328.49,-54 328.49,-54 464.31,-251.01 512.05,-320.27"/>
</g>
<!-- UCOpenTable -->
<g id="node36" class="node">
<title>UCOpenTable</title>
<ellipse fill="none" stroke="#29434e" stroke-width="1.2" cx="241.87" cy="-231" rx="52.68" ry="24.75"/>
<text xml:space="preserve" text-anchor="middle" x="241.87" y="-234.05" font-family="Arial" font-size="11.00">Tischansicht</text>
<text xml:space="preserve" text-anchor="middle" x="241.87" y="-220.55" font-family="Arial" font-size="11.00">oeffnen</text>
</g>
<!-- DM&#45;&gt;UCOpenTable -->
<g id="edge25" class="edge">
<title>DM&#45;&gt;UCOpenTable</title>
<path fill="none" stroke="#546e7a" d="M96.52,-210.67C125.25,-214.72 161.85,-219.87 191.01,-223.98"/>
</g>
<!-- TableScreen -->
<g id="node4" class="node">
<title>TableScreen</title>
<path fill="#fff8e1" stroke="#29434e" stroke-width="1.2" d="M274.25,-103C274.25,-103 209.5,-103 209.5,-103 203.5,-103 197.5,-97 197.5,-91 197.5,-91 197.5,-79 197.5,-79 197.5,-73 203.5,-67 209.5,-67 209.5,-67 274.25,-67 274.25,-67 280.25,-67 286.25,-73 286.25,-79 286.25,-79 286.25,-91 286.25,-91 286.25,-97 280.25,-103 274.25,-103"/>
<text xml:space="preserve" text-anchor="middle" x="241.87" y="-81.3" font-family="Arial" font-size="11.00">Tischbildschirm</text>
</g>
<!-- UCTableView -->
<g id="node37" class="node">
<title>UCTableView</title>
<ellipse fill="none" stroke="#29434e" stroke-width="1.2" cx="529.42" cy="-420" rx="52.68" ry="24.75"/>
<text xml:space="preserve" text-anchor="middle" x="529.42" y="-423.05" font-family="Arial" font-size="11.00">Tischansicht</text>
<text xml:space="preserve" text-anchor="middle" x="529.42" y="-409.55" font-family="Arial" font-size="11.00">anzeigen</text>
</g>
<!-- TableScreen&#45;&gt;UCTableView -->
<g id="edge37" class="edge">
<title>TableScreen&#45;&gt;UCTableView</title>
<path fill="none" stroke="#546e7a" d="M286.68,-100.86C307.75,-108.49 328.49,-116 328.49,-116 328.49,-116 408.49,-294 408.49,-294 408.49,-294 437.49,-382 437.49,-382 437.49,-382 464.49,-393.28 489.06,-403.55"/>
</g>
<!-- Keycloak -->
<g id="node5" class="node">
<title>Keycloak</title>
<path fill="#f5f5f5" stroke="#29434e" stroke-width="1.2" stroke-dasharray="5,2" d="M65.88,-1184C65.88,-1184 30.37,-1184 30.37,-1184 24.38,-1184 18.37,-1178 18.37,-1172 18.37,-1172 18.37,-1160 18.37,-1160 18.37,-1154 24.37,-1148 30.37,-1148 30.37,-1148 65.88,-1148 65.88,-1148 71.88,-1148 77.88,-1154 77.88,-1160 77.88,-1160 77.88,-1172 77.88,-1172 77.88,-1178 71.88,-1184 65.88,-1184"/>
<text xml:space="preserve" text-anchor="middle" x="48.12" y="-1169.05" font-family="Arial" font-size="11.00">Keycloak</text>
<text xml:space="preserve" text-anchor="middle" x="48.12" y="-1155.55" font-family="Arial" font-size="11.00">(extern)</text>
</g>
<!-- Keycloak&#45;&gt;UCLogin -->
<g id="edge2" class="edge">
<title>Keycloak&#45;&gt;UCLogin</title>
<path fill="none" stroke="#546e7a" stroke-dasharray="5,2" d="M78.25,-1150.96C112.72,-1133.17 170.03,-1103.57 206.61,-1084.69"/>
</g>
<!-- UCCharacterDetails -->
<g id="node10" class="node">
<title>UCCharacterDetails</title>
<ellipse fill="none" stroke="#29434e" stroke-width="1.2" cx="529.42" cy="-687" rx="91.92" ry="34.29"/>
<text xml:space="preserve" text-anchor="middle" x="529.42" y="-696.8" font-family="Arial" font-size="11.00">Ability Scores,</text>
<text xml:space="preserve" text-anchor="middle" x="529.42" y="-683.3" font-family="Arial" font-size="11.00">Klasse und Background</text>
<text xml:space="preserve" text-anchor="middle" x="529.42" y="-669.8" font-family="Arial" font-size="11.00">festlegen</text>
</g>
<!-- UCCharacter&#45;&gt;UCCharacterDetails -->
<g id="edge11" class="edge">
<title>UCCharacter&#45;&gt;UCCharacterDetails</title>
<path fill="none" stroke="#546e7a" stroke-dasharray="5,2" d="M318.27,-687C352.14,-687 392.58,-687 428.89,-687"/>
<polygon fill="#546e7a" stroke="#546e7a" points="428.54,-689.45 435.54,-687 428.54,-684.55 428.54,-689.45"/>
<text xml:space="preserve" text-anchor="middle" x="382.99" y="-688.95" font-family="Arial" font-size="9.00">&lt;&lt;include&gt;&gt;</text>
</g>
<!-- UCViewMap -->
<g id="node16" class="node">
<title>UCViewMap</title>
<ellipse fill="none" stroke="#29434e" stroke-width="1.2" cx="834.46" cy="-979" rx="40.48" ry="24.75"/>
<text xml:space="preserve" text-anchor="middle" x="834.46" y="-982.05" font-family="Arial" font-size="11.00">Karte</text>
<text xml:space="preserve" text-anchor="middle" x="834.46" y="-968.55" font-family="Arial" font-size="11.00">ansehen</text>
</g>
<!-- UCPlayerView&#45;&gt;UCViewMap -->
<g id="edge12" class="edge">
<title>UCPlayerView&#45;&gt;UCViewMap</title>
<path fill="none" stroke="#546e7a" stroke-dasharray="5,2" d="M580.8,-915.64C638.59,-930.13 732.51,-953.68 788.1,-967.62"/>
<polygon fill="#546e7a" stroke="#546e7a" points="787.49,-970 794.88,-969.32 788.69,-965.25 787.49,-970"/>
<text xml:space="preserve" text-anchor="middle" x="675.84" y="-947.5" font-family="Arial" font-size="9.00">&lt;&lt;include&gt;&gt;</text>
</g>
<!-- UCViewCharacter -->
<g id="node17" class="node">
<title>UCViewCharacter</title>
<ellipse fill="none" stroke="#29434e" stroke-width="1.2" cx="834.46" cy="-1055" rx="70.18" ry="24.75"/>
<text xml:space="preserve" text-anchor="middle" x="834.46" y="-1058.05" font-family="Arial" font-size="11.00">Charakterwerte</text>
<text xml:space="preserve" text-anchor="middle" x="834.46" y="-1044.55" font-family="Arial" font-size="11.00">und HP anzeigen</text>
</g>
<!-- UCPlayerView&#45;&gt;UCViewCharacter -->
<g id="edge13" class="edge">
<title>UCPlayerView&#45;&gt;UCViewCharacter</title>
<path fill="none" stroke="#546e7a" stroke-dasharray="5,2" d="M565.7,-923.12C623.09,-955.85 730.34,-1017 730.34,-1017 730.34,-1017 753,-1025.35 777.08,-1034.22"/>
<polygon fill="#546e7a" stroke="#546e7a" points="776.08,-1036.47 783.5,-1036.59 777.78,-1031.87 776.08,-1036.47"/>
<text xml:space="preserve" text-anchor="middle" x="675.84" y="-1002.4" font-family="Arial" font-size="9.00">&lt;&lt;include&gt;&gt;</text>
</g>
<!-- UCRollDice -->
<g id="node18" class="node">
<title>UCRollDice</title>
<ellipse fill="none" stroke="#29434e" stroke-width="1.2" cx="834.46" cy="-757" rx="37.09" ry="18"/>
<text xml:space="preserve" text-anchor="middle" x="834.46" y="-753.3" font-family="Arial" font-size="11.00">Wuerfeln</text>
</g>
<!-- UCPlayerView&#45;&gt;UCRollDice -->
<g id="edge14" class="edge">
<title>UCPlayerView&#45;&gt;UCRollDice</title>
<path fill="none" stroke="#546e7a" stroke-dasharray="5,2" d="M565.7,-882.88C623.09,-850.15 730.34,-789 730.34,-789 730.34,-789 765.27,-778.16 794.47,-769.1"/>
<polygon fill="#546e7a" stroke="#546e7a" points="795.12,-771.46 801.08,-767.05 793.66,-766.78 795.12,-771.46"/>
<text xml:space="preserve" text-anchor="middle" x="675.84" y="-834.39" font-family="Arial" font-size="9.00">&lt;&lt;include&gt;&gt;</text>
</g>
<!-- UCVote -->
<g id="node19" class="node">
<title>UCVote</title>
<ellipse fill="none" stroke="#29434e" stroke-width="1.2" cx="834.46" cy="-827" rx="104.12" ry="24.75"/>
<text xml:space="preserve" text-anchor="middle" x="834.46" y="-830.05" font-family="Arial" font-size="11.00">Bei Gruppen&#45;</text>
<text xml:space="preserve" text-anchor="middle" x="834.46" y="-816.55" font-family="Arial" font-size="11.00">entscheidungen abstimmen</text>
</g>
<!-- UCPlayerView&#45;&gt;UCVote -->
<g id="edge15" class="edge">
<title>UCPlayerView&#45;&gt;UCVote</title>
<path fill="none" stroke="#546e7a" stroke-dasharray="5,2" d="M580.8,-890.36C627.8,-878.58 698.7,-860.8 753.44,-847.07"/>
<polygon fill="#546e7a" stroke="#546e7a" points="753.73,-849.52 759.92,-845.44 752.54,-844.77 753.73,-849.52"/>
<text xml:space="preserve" text-anchor="middle" x="675.84" y="-873.76" font-family="Arial" font-size="9.00">&lt;&lt;include&gt;&gt;</text>
</g>
<!-- UCNotes -->
<g id="node20" class="node">
<title>UCNotes</title>
<ellipse fill="none" stroke="#29434e" stroke-width="1.2" cx="834.46" cy="-903" rx="37.3" ry="24.75"/>
<text xml:space="preserve" text-anchor="middle" x="834.46" y="-906.05" font-family="Arial" font-size="11.00">Notizen</text>
<text xml:space="preserve" text-anchor="middle" x="834.46" y="-892.55" font-family="Arial" font-size="11.00">pflegen</text>
</g>
<!-- UCPlayerView&#45;&gt;UCNotes -->
<g id="edge16" class="edge">
<title>UCPlayerView&#45;&gt;UCNotes</title>
<path fill="none" stroke="#546e7a" stroke-dasharray="5,2" d="M588.85,-903C647.13,-903 735.42,-903 788.46,-903"/>
<polygon fill="#546e7a" stroke="#546e7a" points="788.15,-905.45 795.15,-903 788.15,-900.55 788.15,-905.45"/>
<text xml:space="preserve" text-anchor="middle" x="675.84" y="-904.95" font-family="Arial" font-size="9.00">&lt;&lt;include&gt;&gt;</text>
</g>
<!-- UCRealtime -->
<g id="node38" class="node">
<title>UCRealtime</title>
<ellipse fill="none" stroke="#29434e" stroke-width="1.2" cx="834.46" cy="-675" rx="83.97" ry="24.75"/>
<text xml:space="preserve" text-anchor="middle" x="834.46" y="-678.05" font-family="Arial" font-size="11.00">Spielstand in Echtzeit</text>
<text xml:space="preserve" text-anchor="middle" x="834.46" y="-664.55" font-family="Arial" font-size="11.00">synchronisieren</text>
</g>
<!-- UCPlayerView&#45;&gt;UCRealtime -->
<g id="edge17" class="edge">
<title>UCPlayerView&#45;&gt;UCRealtime</title>
<path fill="none" stroke="#546e7a" stroke-dasharray="5,2" d="M554.4,-880.3C589.39,-847.18 650.34,-789.5 650.34,-789.5 650.34,-789.5 730.34,-726 730.34,-726 730.34,-726 756.66,-712.98 782.71,-700.1"/>
<polygon fill="#546e7a" stroke="#546e7a" points="783.48,-702.45 788.67,-697.15 781.31,-698.06 783.48,-702.45"/>
<text xml:space="preserve" text-anchor="middle" x="675.84" y="-791.45" font-family="Arial" font-size="9.00">&lt;&lt;include&gt;&gt;</text>
</g>
<!-- UCManageCampaignData -->
<g id="node23" class="node">
<title>UCManageCampaignData</title>
<ellipse fill="none" stroke="#29434e" stroke-width="1.2" cx="529.42" cy="-572" rx="90.33" ry="24.75"/>
<text xml:space="preserve" text-anchor="middle" x="529.42" y="-575.05" font-family="Arial" font-size="11.00">Story, Sichtbarkeit</text>
<text xml:space="preserve" text-anchor="middle" x="529.42" y="-561.55" font-family="Arial" font-size="11.00">und Spielerlimit pflegen</text>
</g>
<!-- UCEditCampaign&#45;&gt;UCManageCampaignData -->
<g id="edge26" class="edge">
<title>UCEditCampaign&#45;&gt;UCManageCampaignData</title>
<path fill="none" stroke="#546e7a" stroke-dasharray="5,2" d="M290.19,-328C309.99,-336.79 328.49,-345 328.49,-345 328.49,-345 357.49,-417 357.49,-417 357.49,-417 437.49,-534 437.49,-534 437.49,-534 452.66,-540.34 470.61,-547.84"/>
<polygon fill="#546e7a" stroke="#546e7a" points="469.63,-550.09 477.03,-550.53 471.52,-545.57 469.63,-550.09"/>
<text xml:space="preserve" text-anchor="middle" x="382.99" y="-491.37" font-family="Arial" font-size="9.00">&lt;&lt;include&gt;&gt;</text>
</g>
<!-- UCUploadMap -->
<g id="node24" class="node">
<title>UCUploadMap</title>
<ellipse fill="none" stroke="#29434e" stroke-width="1.2" cx="529.42" cy="-496" rx="68.59" ry="24.75"/>
<text xml:space="preserve" text-anchor="middle" x="529.42" y="-499.05" font-family="Arial" font-size="11.00">Karte hochladen</text>
<text xml:space="preserve" text-anchor="middle" x="529.42" y="-485.55" font-family="Arial" font-size="11.00">und zuschneiden</text>
</g>
<!-- UCEditCampaign&#45;&gt;UCUploadMap -->
<g id="edge27" class="edge">
<title>UCEditCampaign&#45;&gt;UCUploadMap</title>
<path fill="none" stroke="#546e7a" stroke-dasharray="5,2" d="M290.19,-328C309.99,-336.79 328.49,-345 328.49,-345 328.49,-345 408.49,-404.5 408.49,-404.5 408.49,-404.5 437.49,-458 437.49,-458 437.49,-458 455.64,-465.59 475.73,-473.98"/>
<polygon fill="#546e7a" stroke="#546e7a" points="474.69,-476.2 482.09,-476.64 476.58,-471.68 474.69,-476.2"/>
<text xml:space="preserve" text-anchor="middle" x="382.99" y="-406.45" font-family="Arial" font-size="9.00">&lt;&lt;include&gt;&gt;</text>
</g>
<!-- UCCockpit&#45;&gt;UCReviewCharacters -->
<g id="edge28" class="edge">
<title>UCCockpit&#45;&gt;UCReviewCharacters</title>
<path fill="none" stroke="#546e7a" stroke-dasharray="5,2" d="M581.48,-156.66C619.75,-156.41 673.58,-156.06 721.67,-155.74"/>
<polygon fill="#546e7a" stroke="#546e7a" points="721.45,-158.19 728.44,-155.69 721.42,-153.29 721.45,-158.19"/>
<text xml:space="preserve" text-anchor="middle" x="675.84" y="-158.13" font-family="Arial" font-size="9.00">&lt;&lt;include&gt;&gt;</text>
</g>
<!-- UCMarkers -->
<g id="node32" class="node">
<title>UCMarkers</title>
<ellipse fill="none" stroke="#29434e" stroke-width="1.2" cx="834.46" cy="-231" rx="76.01" ry="24.75"/>
<text xml:space="preserve" text-anchor="middle" x="834.46" y="-234.05" font-family="Arial" font-size="11.00">Kartenmarker und</text>
<text xml:space="preserve" text-anchor="middle" x="834.46" y="-220.55" font-family="Arial" font-size="11.00">Gruppen verwalten</text>
</g>
<!-- UCCockpit&#45;&gt;UCMarkers -->
<g id="edge29" class="edge">
<title>UCCockpit&#45;&gt;UCMarkers</title>
<path fill="none" stroke="#546e7a" stroke-dasharray="5,2" d="M576.11,-168.16C626.17,-180.38 707.02,-200.12 764.73,-214.22"/>
<polygon fill="#546e7a" stroke="#546e7a" points="763.86,-216.53 771.25,-215.81 765.03,-211.77 763.86,-216.53"/>
<text xml:space="preserve" text-anchor="middle" x="675.84" y="-200.38" font-family="Arial" font-size="9.00">&lt;&lt;include&gt;&gt;</text>
</g>
<!-- UCTurn -->
<g id="node30" class="node">
<title>UCTurn</title>
<ellipse fill="none" stroke="#29434e" stroke-width="1.2" cx="834.46" cy="-523" rx="63.29" ry="24.75"/>
<text xml:space="preserve" text-anchor="middle" x="834.46" y="-526.05" font-family="Arial" font-size="11.00">Spielzug /</text>
<text xml:space="preserve" text-anchor="middle" x="834.46" y="-512.55" font-family="Arial" font-size="11.00">Initiative setzen</text>
</g>
<!-- UCGMView&#45;&gt;UCTurn -->
<g id="edge30" class="edge">
<title>UCGMView&#45;&gt;UCTurn</title>
<path fill="none" stroke="#546e7a" stroke-dasharray="5,2" d="M569.5,-360.34C594.15,-370.64 621.34,-382 621.34,-382 621.34,-382 650.34,-418 650.34,-418 650.34,-418 730.34,-485 730.34,-485 730.34,-485 754.59,-493.94 779.58,-503.14"/>
<polygon fill="#546e7a" stroke="#546e7a" points="778.49,-505.36 785.91,-505.48 780.19,-500.76 778.49,-505.36"/>
<text xml:space="preserve" text-anchor="middle" x="675.84" y="-461.42" font-family="Arial" font-size="9.00">&lt;&lt;include&gt;&gt;</text>
</g>
<!-- UCHP -->
<g id="node31" class="node">
<title>UCHP</title>
<ellipse fill="none" stroke="#29434e" stroke-width="1.2" cx="834.46" cy="-301" rx="50.65" ry="18"/>
<text xml:space="preserve" text-anchor="middle" x="834.46" y="-297.3" font-family="Arial" font-size="11.00">HP verwalten</text>
</g>
<!-- UCGMView&#45;&gt;UCHP -->
<g id="edge31" class="edge">
<title>UCGMView&#45;&gt;UCHP</title>
<path fill="none" stroke="#546e7a" stroke-dasharray="5,2" d="M579.78,-337C634.29,-329.26 721.82,-316.84 778.48,-308.8"/>
<polygon fill="#546e7a" stroke="#546e7a" points="778.52,-311.27 785.11,-307.86 777.84,-306.42 778.52,-311.27"/>
<text xml:space="preserve" text-anchor="middle" x="675.84" y="-328.3" font-family="Arial" font-size="9.00">&lt;&lt;include&gt;&gt;</text>
</g>
<!-- UCGMView&#45;&gt;UCMarkers -->
<g id="edge32" class="edge">
<title>UCGMView&#45;&gt;UCMarkers</title>
<path fill="none" stroke="#546e7a" stroke-dasharray="5,2" d="M571.29,-328.76C623.86,-309.16 715.5,-274.99 775.32,-252.68"/>
<polygon fill="#546e7a" stroke="#546e7a" points="776.05,-255.02 781.76,-250.28 774.34,-250.43 776.05,-255.02"/>
<text xml:space="preserve" text-anchor="middle" x="675.84" y="-299.57" font-family="Arial" font-size="9.00">&lt;&lt;include&gt;&gt;</text>
</g>
<!-- UCFog -->
<g id="node33" class="node">
<title>UCFog</title>
<ellipse fill="none" stroke="#29434e" stroke-width="1.2" cx="834.46" cy="-599" rx="48.97" ry="24.75"/>
<text xml:space="preserve" text-anchor="middle" x="834.46" y="-602.05" font-family="Arial" font-size="11.00">Fog of War</text>
<text xml:space="preserve" text-anchor="middle" x="834.46" y="-588.55" font-family="Arial" font-size="11.00">verwalten</text>
</g>
<!-- UCGMView&#45;&gt;UCFog -->
<g id="edge33" class="edge">
<title>UCGMView&#45;&gt;UCFog</title>
<path fill="none" stroke="#546e7a" stroke-dasharray="5,2" d="M569.5,-360.34C594.15,-370.64 621.34,-382 621.34,-382 621.34,-382 650.34,-476 650.34,-476 650.34,-476 701.34,-507.5 701.34,-507.5 701.34,-507.5 730.34,-561 730.34,-561 730.34,-561 759.08,-571.59 786.22,-581.59"/>
<polygon fill="#546e7a" stroke="#546e7a" points="785.34,-583.88 792.76,-584 787.04,-579.28 785.34,-583.88"/>
<text xml:space="preserve" text-anchor="middle" x="675.84" y="-509.45" font-family="Arial" font-size="9.00">&lt;&lt;include&gt;&gt;</text>
</g>
<!-- UCDecisions -->
<g id="node34" class="node">
<title>UCDecisions</title>
<ellipse fill="none" stroke="#29434e" stroke-width="1.2" cx="834.46" cy="-447" rx="100.41" ry="24.75"/>
<text xml:space="preserve" text-anchor="middle" x="834.46" y="-450.05" font-family="Arial" font-size="11.00">Gruppenentscheidungen</text>
<text xml:space="preserve" text-anchor="middle" x="834.46" y="-436.55" font-family="Arial" font-size="11.00">erstellen und abschliessen</text>
</g>
<!-- UCGMView&#45;&gt;UCDecisions -->
<g id="edge34" class="edge">
<title>UCGMView&#45;&gt;UCDecisions</title>
<path fill="none" stroke="#546e7a" stroke-dasharray="5,2" d="M572.55,-358.32C622.67,-375.36 706.98,-404.01 766.16,-424.13"/>
<polygon fill="#546e7a" stroke="#546e7a" points="765.12,-426.36 772.54,-426.29 766.7,-421.72 765.12,-426.36"/>
<text xml:space="preserve" text-anchor="middle" x="675.84" y="-403.62" font-family="Arial" font-size="9.00">&lt;&lt;include&gt;&gt;</text>
</g>
<!-- UCDMDice -->
<g id="node35" class="node">
<title>UCDMDice</title>
<ellipse fill="none" stroke="#29434e" stroke-width="1.2" cx="834.46" cy="-371" rx="83.97" ry="24.75"/>
<text xml:space="preserve" text-anchor="middle" x="834.46" y="-374.05" font-family="Arial" font-size="11.00">Wuerfelergebnis</text>
<text xml:space="preserve" text-anchor="middle" x="834.46" y="-360.55" font-family="Arial" font-size="11.00">anzeigen oder setzen</text>
</g>
<!-- UCGMView&#45;&gt;UCDMDice -->
<g id="edge35" class="edge">
<title>UCGMView&#45;&gt;UCDMDice</title>
<path fill="none" stroke="#546e7a" stroke-dasharray="5,2" d="M581.14,-348.52C625.76,-352.49 691.73,-358.37 745.02,-363.12"/>
<polygon fill="#546e7a" stroke="#546e7a" points="744.77,-365.56 751.95,-363.74 745.2,-360.68 744.77,-365.56"/>
<text xml:space="preserve" text-anchor="middle" x="675.84" y="-361.07" font-family="Arial" font-size="9.00">&lt;&lt;include&gt;&gt;</text>
</g>
<!-- UCGMView&#45;&gt;UCRealtime -->
<g id="edge36" class="edge">
<title>UCGMView&#45;&gt;UCRealtime</title>
<path fill="none" stroke="#546e7a" stroke-dasharray="5,2" d="M569.5,-360.34C594.15,-370.64 621.34,-382 621.34,-382 621.34,-382 650.34,-520 650.34,-520 650.34,-520 701.34,-550.5 701.34,-550.5 701.34,-550.5 730.34,-637 730.34,-637 730.34,-637 750.33,-644.37 772.71,-652.61"/>
<polygon fill="#546e7a" stroke="#546e7a" points="771.86,-654.91 779.27,-655.03 773.55,-650.31 771.86,-654.91"/>
<text xml:space="preserve" text-anchor="middle" x="675.84" y="-552.45" font-family="Arial" font-size="9.00">&lt;&lt;include&gt;&gt;</text>
</g>
<!-- UCOpenTable&#45;&gt;UCTableView -->
<g id="edge38" class="edge">
<title>UCOpenTable&#45;&gt;UCTableView</title>
<path fill="none" stroke="#546e7a" stroke-dasharray="5,2" d="M281.17,-248C303.97,-258.12 328.49,-269 328.49,-269 328.49,-269 408.49,-351.5 408.49,-351.5 408.49,-351.5 437.49,-382 437.49,-382 437.49,-382 459.1,-391.03 481.24,-400.28"/>
<polygon fill="#546e7a" stroke="#546e7a" points="480.26,-402.53 487.67,-402.97 482.15,-398.01 480.26,-402.53"/>
<text xml:space="preserve" text-anchor="middle" x="382.99" y="-353.45" font-family="Arial" font-size="9.00">&lt;&lt;include&gt;&gt;</text>
</g>
<!-- UCTableView&#45;&gt;UCFog -->
<g id="edge40" class="edge">
<title>UCTableView&#45;&gt;UCFog</title>
<path fill="none" stroke="#546e7a" stroke-dasharray="5,2" d="M569.77,-436.45C594.34,-446.72 621.34,-458 621.34,-458 621.34,-458 650.34,-563 650.34,-563 650.34,-563 726,-577.87 780.05,-588.5"/>
<polygon fill="#546e7a" stroke="#546e7a" points="779.37,-590.86 786.71,-589.81 780.31,-586.05 779.37,-590.86"/>
<text xml:space="preserve" text-anchor="middle" x="675.84" y="-574.6" font-family="Arial" font-size="9.00">&lt;&lt;include&gt;&gt;</text>
</g>
<!-- UCTableView&#45;&gt;UCRealtime -->
<g id="edge39" class="edge">
<title>UCTableView&#45;&gt;UCRealtime</title>
<path fill="none" stroke="#546e7a" stroke-dasharray="5,2" d="M569.77,-436.45C594.34,-446.72 621.34,-458 621.34,-458 621.34,-458 650.34,-589 650.34,-589 650.34,-589 730.34,-637 730.34,-637 730.34,-637 750.33,-644.37 772.71,-652.61"/>
<polygon fill="#546e7a" stroke="#546e7a" points="771.86,-654.91 779.27,-655.03 773.55,-650.31 771.86,-654.91"/>
<text xml:space="preserve" text-anchor="middle" x="675.84" y="-620.66" font-family="Arial" font-size="9.00">&lt;&lt;include&gt;&gt;</text>
</g>
</g>
</svg>
