<?xml version="1.0" encoding="UTF-8" standalone="no"?>
<!DOCTYPE svg PUBLIC "-//W3C//DTD SVG 1.1//EN"
 "http://www.w3.org/Graphics/SVG/1.1/DTD/svg11.dtd">
<!-- Generated by graphviz version 14.0.2 (20251019.1705)
 -->
<!-- Title: DicekeeperTargetUsecases Pages: 1 -->
<svg width="1558pt" height="1108pt"
 viewBox="0.00 0.00 1558.00 1108.00" xmlns="http://www.w3.org/2000/svg" xmlns:xlink="http://www.w3.org/1999/xlink">
<g id="graph0" class="graph" transform="scale(1 1) rotate(0) translate(4 1104)">
<title>DicekeeperTargetUsecases</title>
<polygon fill="white" stroke="none" points="-4,4 -4,-1104 1553.54,-1104 1553.54,4 -4,4"/>
<g id="clust1" class="cluster">
<title>cluster_system</title>
<path fill="white" stroke="#90a4ae" stroke-width="1.5" d="M163.25,-53C163.25,-53 1529.54,-53 1529.54,-53 1535.54,-53 1541.54,-59 1541.54,-65 1541.54,-65 1541.54,-757 1541.54,-757 1541.54,-763 1535.54,-769 1529.54,-769 1529.54,-769 163.25,-769 163.25,-769 157.25,-769 151.25,-763 151.25,-757 151.25,-757 151.25,-65 151.25,-65 151.25,-59 157.25,-53 163.25,-53"/>
<text xml:space="preserve" text-anchor="middle" x="846.4" y="-749.8" font-family="Arial Bold" font-size="16.00">Dicekeeper Web&#45;App &#45; Sollzustand in der 5. Klasse</text>
</g>
<!-- Player -->
<g id="node1" class="node">
<title>Player</title>
<path fill="#eef7ff" stroke="#29434e" stroke-width="1.2" d="M63.12,-611C63.12,-611 33.12,-611 33.12,-611 27.13,-611 21.12,-605 21.12,-599 21.12,-599 21.12,-587 21.12,-587 21.12,-581 27.12,-575 33.12,-575 33.12,-575 63.12,-575 63.12,-575 69.12,-575 75.12,-581 75.12,-587 75.12,-587 75.12,-599 75.12,-599 75.12,-605 69.12,-611 63.12,-611"/>
<text xml:space="preserve" text-anchor="middle" x="48.12" y="-589.3" font-family="Arial" font-size="11.00">Spieler</text>
</g>
<!-- UCRuleQuestion -->
<g id="node14" class="node">
<title>UCRuleQuestion</title>
<ellipse fill="none" stroke="#29434e" stroke-width="1.2" cx="843.68" cy="-90" rx="48.97" ry="24.75"/>
<text xml:space="preserve" text-anchor="middle" x="843.68" y="-93.05" font-family="Arial" font-size="11.00">Regelfrage</text>
<text xml:space="preserve" text-anchor="middle" x="843.68" y="-79.55" font-family="Arial" font-size="11.00">stellen</text>
</g>
<!-- Player&#45;&gt;UCRuleQuestion -->
<g id="edge24" class="edge">
<title>Player&#45;&gt;UCRuleQuestion</title>
<path fill="none" stroke="#546e7a" d="M54.26,-611.35C74.97,-685.37 151.25,-958 151.25,-958 151.25,-958 348.4,-958 348.4,-958 348.4,-958 430.4,-931 430.4,-931 430.4,-931 679.19,-749 679.19,-749 679.19,-749 789.94,-132 789.94,-132 789.94,-132 803.12,-121.5 816.31,-111"/>
</g>
<!-- UCMobilePlayer -->
<g id="node22" class="node">
<title>UCMobilePlayer</title>
<ellipse fill="none" stroke="#29434e" stroke-width="1.2" cx="253.83" cy="-554" rx="86.62" ry="24.75"/>
<text xml:space="preserve" text-anchor="middle" x="253.83" y="-557.05" font-family="Arial" font-size="11.00">Spieleransicht mobil</text>
<text xml:space="preserve" text-anchor="middle" x="253.83" y="-543.55" font-family="Arial" font-size="11.00">oder am Tablet nutzen</text>
</g>
<!-- Player&#45;&gt;UCMobilePlayer -->
<g id="edge21" class="edge">
<title>Player&#45;&gt;UCMobilePlayer</title>
<path fill="none" stroke="#546e7a" d="M75.34,-587.98C101.88,-582.9 144.12,-574.81 180.73,-567.8"/>
</g>
<!-- UCPlayerVoice -->
<g id="node23" class="node">
<title>UCPlayerVoice</title>
<ellipse fill="none" stroke="#29434e" stroke-width="1.2" cx="253.83" cy="-302" rx="85.56" ry="24.75"/>
<text xml:space="preserve" text-anchor="middle" x="253.83" y="-305.05" font-family="Arial" font-size="11.00">Per Sprache wuerfeln</text>
<text xml:space="preserve" text-anchor="middle" x="253.83" y="-291.55" font-family="Arial" font-size="11.00">oder Aktion ansagen</text>
</g>
<!-- Player&#45;&gt;UCPlayerVoice -->
<g id="edge22" class="edge">
<title>Player&#45;&gt;UCPlayerVoice</title>
<path fill="none" stroke="#546e7a" d="M56.63,-574.47C80.22,-516.27 151.25,-341 151.25,-341 151.25,-341 175.86,-331.55 200.85,-321.96"/>
</g>
<!-- UCPlayerDecision -->
<g id="node24" class="node">
<title>UCPlayerDecision</title>
<ellipse fill="none" stroke="#29434e" stroke-width="1.2" cx="253.83" cy="-632" rx="94.58" ry="24.75"/>
<text xml:space="preserve" text-anchor="middle" x="253.83" y="-635.05" font-family="Arial" font-size="11.00">Gruppenentscheidungen</text>
<text xml:space="preserve" text-anchor="middle" x="253.83" y="-621.55" font-family="Arial" font-size="11.00">treffen</text>
</g>
<!-- Player&#45;&gt;UCPlayerDecision -->
<g id="edge23" class="edge">
<title>Player&#45;&gt;UCPlayerDecision</title>
<path fill="none" stroke="#546e7a" d="M75.34,-598.02C100.8,-602.89 140.72,-610.54 176.26,-617.34"/>
</g>
<!-- DM -->
<g id="node2" class="node">
<title>DM</title>
<path fill="#e8f5e9" stroke="#29434e" stroke-width="1.2" d="M84.25,-202C84.25,-202 12,-202 12,-202 6,-202 0,-196 0,-190 0,-190 0,-178 0,-178 0,-172 6,-166 12,-166 12,-166 84.25,-166 84.25,-166 90.25,-166 96.25,-172 96.25,-178 96.25,-178 96.25,-190 96.25,-190 96.25,-196 90.25,-202 84.25,-202"/>
<text xml:space="preserve" text-anchor="middle" x="48.12" y="-180.3" font-family="Arial" font-size="11.00">Dungeon Master</text>
</g>
<!-- UCPrepare -->
<g id="node8" class="node">
<title>UCPrepare</title>
<ellipse fill="none" stroke="#29434e" stroke-width="1.2" cx="253.83" cy="-459" rx="73.36" ry="24.75"/>
<text xml:space="preserve" text-anchor="middle" x="253.83" y="-462.05" font-family="Arial" font-size="11.00">Kampagne planen</text>
<text xml:space="preserve" text-anchor="middle" x="253.83" y="-448.55" font-family="Arial" font-size="11.00">und vorbereiten</text>
</g>
<!-- DM&#45;&gt;UCPrepare -->
<g id="edge1" class="edge">
<title>DM&#45;&gt;UCPrepare</title>
<path fill="none" stroke="#546e7a" d="M57.14,-202.44C81.21,-257.84 151.25,-419 151.25,-419 151.25,-419 178.46,-429.72 204.71,-440.05"/>
</g>
<!-- UCCombat -->
<g id="node12" class="node">
<title>UCCombat</title>
<ellipse fill="none" stroke="#29434e" stroke-width="1.2" cx="843.68" cy="-171" rx="53.74" ry="24.75"/>
<text xml:space="preserve" text-anchor="middle" x="843.68" y="-174.05" font-family="Arial" font-size="11.00">Kampfszene</text>
<text xml:space="preserve" text-anchor="middle" x="843.68" y="-160.55" font-family="Arial" font-size="11.00">verwalten</text>
</g>
<!-- DM&#45;&gt;UCCombat -->
<g id="edge2" class="edge">
<title>DM&#45;&gt;UCCombat</title>
<path fill="none" stroke="#546e7a" d="M73.33,-165.52C103.53,-142.45 151.25,-106 151.25,-106 151.25,-106 461.4,-47 461.4,-47 461.4,-47 679.19,-47 679.19,-47 679.19,-47 758.94,-81 758.94,-81 758.94,-81 789.94,-129 789.94,-129 789.94,-129 802.72,-139.17 815.69,-149.51"/>
</g>
<!-- DM&#45;&gt;UCRuleQuestion -->
<g id="edge3" class="edge">
<title>DM&#45;&gt;UCRuleQuestion</title>
<path fill="none" stroke="#546e7a" d="M64.64,-165.47C93.2,-131.34 151.25,-62 151.25,-62 151.25,-62 461.4,-40 461.4,-40 461.4,-40 679.19,-40 679.19,-40 679.19,-40 758.94,-53 758.94,-53 758.94,-53 783.63,-63.91 806.19,-73.88"/>
</g>
<!-- UCVoiceCommand -->
<g id="node16" class="node">
<title>UCVoiceCommand</title>
<ellipse fill="none" stroke="#29434e" stroke-width="1.2" cx="253.83" cy="-223" rx="60.63" ry="24.75"/>
<text xml:space="preserve" text-anchor="middle" x="253.83" y="-226.05" font-family="Arial" font-size="11.00">Sprachbefehle</text>
<text xml:space="preserve" text-anchor="middle" x="253.83" y="-212.55" font-family="Arial" font-size="11.00">geben</text>
</g>
<!-- DM&#45;&gt;UCVoiceCommand -->
<g id="edge4" class="edge">
<title>DM&#45;&gt;UCVoiceCommand</title>
<path fill="none" stroke="#546e7a" d="M96.63,-193.09C127.08,-198.92 166.69,-206.51 198.4,-212.58"/>
</g>
<!-- UCDiscordSession -->
<g id="node19" class="node">
<title>UCDiscordSession</title>
<ellipse fill="none" stroke="#29434e" stroke-width="1.2" cx="253.83" cy="-145" rx="85.03" ry="24.75"/>
<text xml:space="preserve" text-anchor="middle" x="253.83" y="-148.05" font-family="Arial" font-size="11.00">Session online</text>
<text xml:space="preserve" text-anchor="middle" x="253.83" y="-134.55" font-family="Arial" font-size="11.00">ueber Discord spielen</text>
</g>
<!-- DM&#45;&gt;UCDiscordSession -->
<g id="edge5" class="edge">
<title>DM&#45;&gt;UCDiscordSession</title>
<path fill="none" stroke="#546e7a" d="M96.63,-174.91C121.9,-170.07 153.49,-164.02 181.64,-158.63"/>
</g>
<!-- UCSessionLog -->
<g id="node28" class="node">
<title>UCSessionLog</title>
<ellipse fill="none" stroke="#29434e" stroke-width="1.2" cx="253.83" cy="-380" rx="79.73" ry="24.75"/>
<text xml:space="preserve" text-anchor="middle" x="253.83" y="-383.05" font-family="Arial" font-size="11.00">Sitzung automatisch</text>
<text xml:space="preserve" text-anchor="middle" x="253.83" y="-369.55" font-family="Arial" font-size="11.00">protokollieren</text>
</g>
<!-- DM&#45;&gt;UCSessionLog -->
<g id="edge6" class="edge">
<title>DM&#45;&gt;UCSessionLog</title>
<path fill="none" stroke="#546e7a" d="M61.04,-202.32C87.98,-243.73 151.25,-341 151.25,-341 151.25,-341 176.84,-350.83 202.34,-360.61"/>
</g>
<!-- SharedView -->
<g id="node3" class="node">
<title>SharedView</title>
<path fill="#fff8e1" stroke="#29434e" stroke-width="1.2" d="M879.06,-1100C879.06,-1100 808.31,-1100 808.31,-1100 802.31,-1100 796.31,-1094 796.31,-1088 796.31,-1088 796.31,-1076 796.31,-1076 796.31,-1070 802.31,-1064 808.31,-1064 808.31,-1064 879.06,-1064 879.06,-1064 885.06,-1064 891.06,-1070 891.06,-1076 891.06,-1076 891.06,-1088 891.06,-1088 891.06,-1094 885.06,-1100 879.06,-1100"/>
<text xml:space="preserve" text-anchor="middle" x="843.68" y="-1085.05" font-family="Arial" font-size="11.00">Tischbildschirm /</text>
<text xml:space="preserve" text-anchor="middle" x="843.68" y="-1071.55" font-family="Arial" font-size="11.00">Online&#45;Gruppe</text>
</g>
<!-- UCSharedView -->
<g id="node26" class="node">
<title>UCSharedView</title>
<ellipse fill="none" stroke="#29434e" stroke-width="1.2" cx="1115.6" cy="-487" rx="105.18" ry="24.75"/>
<text xml:space="preserve" text-anchor="middle" x="1115.6" y="-490.05" font-family="Arial" font-size="11.00">Tisch&#45; oder</text>
<text xml:space="preserve" text-anchor="middle" x="1115.6" y="-476.55" font-family="Arial" font-size="11.00">Online&#45;Uebersicht anzeigen</text>
</g>
<!-- SharedView&#45;&gt;UCSharedView -->
<g id="edge28" class="edge">
<title>SharedView&#45;&gt;UCSharedView</title>
<path fill="none" stroke="#546e7a" d="M891.43,-1068.12C930.34,-1056.57 979.42,-1042 979.42,-1042 979.42,-1042 1082,-620.86 1108.44,-512.29"/>
</g>
<!-- OpenAI -->
<g id="node4" class="node">
<title>OpenAI</title>
<path fill="#f5f5f5" stroke="#29434e" stroke-width="1.2" stroke-dasharray="5,2" d="M278.33,-943C278.33,-943 229.33,-943 229.33,-943 223.33,-943 217.33,-937 217.33,-931 217.33,-931 217.33,-919 217.33,-919 217.33,-913 223.33,-907 229.33,-907 229.33,-907 278.33,-907 278.33,-907 284.33,-907 290.33,-913 290.33,-919 290.33,-919 290.33,-931 290.33,-931 290.33,-937 284.33,-943 278.33,-943"/>
<text xml:space="preserve" text-anchor="middle" x="253.83" y="-928.05" font-family="Arial" font-size="11.00">OpenAI API</text>
<text xml:space="preserve" text-anchor="middle" x="253.83" y="-914.55" font-family="Arial" font-size="11.00">(extern)</text>
</g>
<!-- UCStoryAI -->
<g id="node9" class="node">
<title>UCStoryAI</title>
<ellipse fill="none" stroke="#29434e" stroke-width="1.2" cx="570.3" cy="-398" rx="86.09" ry="24.75"/>
<text xml:space="preserve" text-anchor="middle" x="570.3" y="-401.05" font-family="Arial" font-size="11.00">Story, Questideen</text>
<text xml:space="preserve" text-anchor="middle" x="570.3" y="-387.55" font-family="Arial" font-size="11.00">und Twists generieren</text>
</g>
<!-- OpenAI&#45;&gt;UCStoryAI -->
<g id="edge30" class="edge">
<title>OpenAI&#45;&gt;UCStoryAI</title>
<path fill="none" stroke="#546e7a" stroke-dasharray="5,2" d="M290.74,-912.72C317.13,-903.7 348.4,-893 348.4,-893 348.4,-893 379.4,-839 379.4,-839 379.4,-839 430.4,-801 430.4,-801 430.4,-801 461.4,-437 461.4,-437 461.4,-437 488.37,-427.25 515.35,-417.5"/>
</g>
<!-- UCNpcAI -->
<g id="node10" class="node">
<title>UCNpcAI</title>
<ellipse fill="none" stroke="#29434e" stroke-width="1.2" cx="570.3" cy="-710" rx="82.91" ry="24.75"/>
<text xml:space="preserve" text-anchor="middle" x="570.3" y="-713.05" font-family="Arial" font-size="11.00">NPCs und Orte</text>
<text xml:space="preserve" text-anchor="middle" x="570.3" y="-699.55" font-family="Arial" font-size="11.00">KI&#45;gestuetzt erstellen</text>
</g>
<!-- OpenAI&#45;&gt;UCNpcAI -->
<g id="edge31" class="edge">
<title>OpenAI&#45;&gt;UCNpcAI</title>
<path fill="none" stroke="#546e7a" stroke-dasharray="5,2" d="M290.78,-921.11C342.15,-915.55 430.4,-906 430.4,-906 430.4,-906 514.75,-786.97 551.99,-734.43"/>
</g>
<!-- UCBalanceAI -->
<g id="node11" class="node">
<title>UCBalanceAI</title>
<ellipse fill="none" stroke="#29434e" stroke-width="1.2" cx="570.3" cy="-476" rx="90.33" ry="24.75"/>
<text xml:space="preserve" text-anchor="middle" x="570.3" y="-479.05" font-family="Arial" font-size="11.00">Begegnungen und</text>
<text xml:space="preserve" text-anchor="middle" x="570.3" y="-465.55" font-family="Arial" font-size="11.00">Bosskaempfe balancen</text>
</g>
<!-- OpenAI&#45;&gt;UCBalanceAI -->
<g id="edge32" class="edge">
<title>OpenAI&#45;&gt;UCBalanceAI</title>
<path fill="none" stroke="#546e7a" stroke-dasharray="5,2" d="M290.74,-912.72C317.13,-903.7 348.4,-893 348.4,-893 348.4,-893 430.4,-836 430.4,-836 430.4,-836 461.4,-515 461.4,-515 461.4,-515 487.75,-505.48 514.4,-495.84"/>
</g>
<!-- UCRuleAnswer -->
<g id="node15" class="node">
<title>UCRuleAnswer</title>
<ellipse fill="none" stroke="#29434e" stroke-width="1.2" cx="1115.6" cy="-88" rx="86.09" ry="24.75"/>
<text xml:space="preserve" text-anchor="middle" x="1115.6" y="-91.05" font-family="Arial" font-size="11.00">Regelstelle suchen</text>
<text xml:space="preserve" text-anchor="middle" x="1115.6" y="-77.55" font-family="Arial" font-size="11.00">und Antwort erklaeren</text>
</g>
<!-- OpenAI&#45;&gt;UCRuleAnswer -->
<g id="edge33" class="edge">
<title>OpenAI&#45;&gt;UCRuleAnswer</title>
<path fill="none" stroke="#546e7a" stroke-dasharray="5,2" d="M290.86,-926.74C327.65,-928.51 379.4,-931 379.4,-931 379.4,-931 430.4,-931 430.4,-931 430.4,-931 679.19,-749 679.19,-749 679.19,-749 979.42,-337 979.42,-337 979.42,-337 1010.42,-127 1010.42,-127 1010.42,-127 1036.06,-117.4 1061.9,-107.73"/>
</g>
<!-- UCSummaryAI -->
<g id="node29" class="node">
<title>UCSummaryAI</title>
<ellipse fill="none" stroke="#29434e" stroke-width="1.2" cx="570.3" cy="-632" rx="108.89" ry="24.75"/>
<text xml:space="preserve" text-anchor="middle" x="570.3" y="-635.05" font-family="Arial" font-size="11.00">Zusammenfassung und</text>
<text xml:space="preserve" text-anchor="middle" x="570.3" y="-621.55" font-family="Arial" font-size="11.00">naechste Schritte generieren</text>
</g>
<!-- OpenAI&#45;&gt;UCSummaryAI -->
<g id="edge34" class="edge">
<title>OpenAI&#45;&gt;UCSummaryAI</title>
<path fill="none" stroke="#546e7a" stroke-dasharray="5,2" d="M290.78,-913.94C342.15,-898.14 430.4,-871 430.4,-871 430.4,-871 461.4,-671 461.4,-671 461.4,-671 485.31,-662.36 510.61,-653.21"/>
</g>
<!-- SpeechService -->
<g id="node5" class="node">
<title>SpeechService</title>
<path fill="#f5f5f5" stroke="#29434e" stroke-width="1.2" stroke-dasharray="5,2" d="M286.2,-878C286.2,-878 221.45,-878 221.45,-878 215.45,-878 209.45,-872 209.45,-866 209.45,-866 209.45,-854 209.45,-854 209.45,-848 215.45,-842 221.45,-842 221.45,-842 286.2,-842 286.2,-842 292.2,-842 298.2,-848 298.2,-854 298.2,-854 298.2,-866 298.2,-866 298.2,-872 292.2,-878 286.2,-878"/>
<text xml:space="preserve" text-anchor="middle" x="253.83" y="-863.05" font-family="Arial" font-size="11.00">Speech&#45;to&#45;Text</text>
<text xml:space="preserve" text-anchor="middle" x="253.83" y="-849.55" font-family="Arial" font-size="11.00">Service</text>
</g>
<!-- UCTranscribe -->
<g id="node17" class="node">
<title>UCTranscribe</title>
<ellipse fill="none" stroke="#29434e" stroke-width="1.2" cx="570.3" cy="-320" rx="54.8" ry="24.75"/>
<text xml:space="preserve" text-anchor="middle" x="570.3" y="-323.05" font-family="Arial" font-size="11.00">Audio in Text</text>
<text xml:space="preserve" text-anchor="middle" x="570.3" y="-309.55" font-family="Arial" font-size="11.00">umwandeln</text>
</g>
<!-- SpeechService&#45;&gt;UCTranscribe -->
<g id="edge35" class="edge">
<title>SpeechService&#45;&gt;UCTranscribe</title>
<path fill="none" stroke="#546e7a" stroke-dasharray="5,2" d="M298.6,-845.03C322.95,-836.7 348.4,-828 348.4,-828 348.4,-828 430.4,-761 430.4,-761 430.4,-761 461.4,-359 461.4,-359 461.4,-359 496.49,-346.32 526.65,-335.41"/>
</g>
<!-- Discord -->
<g id="node6" class="node">
<title>Discord</title>
<path fill="#f5f5f5" stroke="#29434e" stroke-width="1.2" stroke-dasharray="5,2" d="M288.83,-813C288.83,-813 218.83,-813 218.83,-813 212.83,-813 206.83,-807 206.83,-801 206.83,-801 206.83,-789 206.83,-789 206.83,-783 212.83,-777 218.83,-777 218.83,-777 288.83,-777 288.83,-777 294.83,-777 300.83,-783 300.83,-789 300.83,-789 300.83,-801 300.83,-801 300.83,-807 294.83,-813 288.83,-813"/>
<text xml:space="preserve" text-anchor="middle" x="253.83" y="-798.05" font-family="Arial" font-size="11.00">Discord Server /</text>
<text xml:space="preserve" text-anchor="middle" x="253.83" y="-784.55" font-family="Arial" font-size="11.00">Discord Bot</text>
</g>
<!-- UCSyncDiscord -->
<g id="node20" class="node">
<title>UCSyncDiscord</title>
<ellipse fill="none" stroke="#29434e" stroke-width="1.2" cx="570.3" cy="-164" rx="105.18" ry="24.75"/>
<text xml:space="preserve" text-anchor="middle" x="570.3" y="-167.05" font-family="Arial" font-size="11.00">Discord&#45;Kanal mit</text>
<text xml:space="preserve" text-anchor="middle" x="570.3" y="-153.55" font-family="Arial" font-size="11.00">Dicekeeper synchronisieren</text>
</g>
<!-- Discord&#45;&gt;UCSyncDiscord -->
<g id="edge36" class="edge">
<title>Discord&#45;&gt;UCSyncDiscord</title>
<path fill="none" stroke="#546e7a" stroke-dasharray="5,2" d="M301.34,-784.06C324.82,-778.54 348.4,-773 348.4,-773 348.4,-773 379.4,-712 379.4,-712 379.4,-712 430.4,-651 430.4,-651 430.4,-651 461.4,-203 461.4,-203 461.4,-203 485.7,-194.22 511.24,-184.98"/>
</g>
<!-- UCDiscordStatus -->
<g id="node21" class="node">
<title>UCDiscordStatus</title>
<ellipse fill="none" stroke="#29434e" stroke-width="1.2" cx="570.3" cy="-242" rx="90.33" ry="24.75"/>
<text xml:space="preserve" text-anchor="middle" x="570.3" y="-245.05" font-family="Arial" font-size="11.00">Wuerfe und Spielstatus</text>
<text xml:space="preserve" text-anchor="middle" x="570.3" y="-231.55" font-family="Arial" font-size="11.00">in Discord anzeigen</text>
</g>
<!-- Discord&#45;&gt;UCDiscordStatus -->
<g id="edge37" class="edge">
<title>Discord&#45;&gt;UCDiscordStatus</title>
<path fill="none" stroke="#546e7a" stroke-dasharray="5,2" d="M301.34,-784.06C324.82,-778.54 348.4,-773 348.4,-773 348.4,-773 430.4,-715 430.4,-715 430.4,-715 461.4,-281 461.4,-281 461.4,-281 487.75,-271.48 514.4,-261.84"/>
</g>
<!-- Rules -->
<g id="node7" class="node">
<title>Rules</title>
<path fill="#f5f5f5" stroke="#29434e" stroke-width="1.2" stroke-dasharray="5,2" d="M867.43,-36C867.43,-36 819.93,-36 819.93,-36 813.93,-36 807.93,-30 807.93,-24 807.93,-24 807.93,-12 807.93,-12 807.93,-6 813.93,0 819.93,0 819.93,0 867.43,0 867.43,0 873.43,0 879.43,-6 879.43,-12 879.43,-12 879.43,-24 879.43,-24 879.43,-30 873.43,-36 867.43,-36"/>
<text xml:space="preserve" text-anchor="middle" x="843.68" y="-21.05" font-family="Arial" font-size="11.00">Regelwerk&#45;</text>
<text xml:space="preserve" text-anchor="middle" x="843.68" y="-7.55" font-family="Arial" font-size="11.00">Datenbank</text>
</g>
<!-- Rules&#45;&gt;UCRuleAnswer -->
<g id="edge38" class="edge">
<title>Rules&#45;&gt;UCRuleAnswer</title>
<path fill="none" stroke="#546e7a" stroke-dasharray="5,2" d="M879.97,-27.15C923.12,-38.34 997,-57.5 1050.35,-71.34"/>
</g>
<!-- UCPrepare&#45;&gt;UCStoryAI -->
<g id="edge7" class="edge">
<title>UCPrepare&#45;&gt;UCStoryAI</title>
<path fill="none" stroke="#546e7a" stroke-dasharray="5,2" d="M318.08,-446.73C367.56,-437.13 436.64,-423.73 489.84,-413.41"/>
<polygon fill="#546e7a" stroke="#546e7a" points="490.01,-415.88 496.42,-412.14 489.08,-411.06 490.01,-415.88"/>
<text xml:space="preserve" text-anchor="middle" x="404.9" y="-435.91" font-family="Arial" font-size="9.00">&lt;&lt;include&gt;&gt;</text>
</g>
<!-- UCPrepare&#45;&gt;UCNpcAI -->
<g id="edge8" class="edge">
<title>UCPrepare&#45;&gt;UCNpcAI</title>
<path fill="none" stroke="#546e7a" stroke-dasharray="5,2" d="M291.27,-480.81C317.55,-496.54 348.4,-515 348.4,-515 348.4,-515 379.4,-572 379.4,-572 379.4,-572 461.4,-671 461.4,-671 461.4,-671 483.88,-679.13 508.32,-687.96"/>
<polygon fill="#546e7a" stroke="#546e7a" points="507.46,-690.25 514.87,-690.33 509.12,-685.64 507.46,-690.25"/>
<text xml:space="preserve" text-anchor="middle" x="404.9" y="-635.23" font-family="Arial" font-size="9.00">&lt;&lt;include&gt;&gt;</text>
</g>
<!-- UCPrepare&#45;&gt;UCBalanceAI -->
<g id="edge9" class="edge">
<title>UCPrepare&#45;&gt;UCBalanceAI</title>
<path fill="none" stroke="#546e7a" stroke-dasharray="5,2" d="M327.51,-460.45C375.81,-461.41 430.4,-462.5 430.4,-462.5 430.4,-462.5 450.9,-464.49 476.15,-466.95"/>
<polygon fill="#546e7a" stroke="#546e7a" points="475.79,-469.37 482.99,-467.61 476.26,-464.5 475.79,-469.37"/>
<text xml:space="preserve" text-anchor="middle" x="404.9" y="-464.45" font-family="Arial" font-size="9.00">&lt;&lt;include&gt;&gt;</text>
</g>
<!-- UCCombatAutomation -->
<g id="node13" class="node">
<title>UCCombatAutomation</title>
<ellipse fill="none" stroke="#29434e" stroke-width="1.2" cx="1115.6" cy="-176" rx="88.21" ry="34.29"/>
<text xml:space="preserve" text-anchor="middle" x="1115.6" y="-185.8" font-family="Arial" font-size="11.00">Initiative, HP,</text>
<text xml:space="preserve" text-anchor="middle" x="1115.6" y="-172.3" font-family="Arial" font-size="11.00">Zustaende und Effekte</text>
<text xml:space="preserve" text-anchor="middle" x="1115.6" y="-158.8" font-family="Arial" font-size="11.00">automatisieren</text>
</g>
<!-- UCCombat&#45;&gt;UCCombatAutomation -->
<g id="edge10" class="edge">
<title>UCCombat&#45;&gt;UCCombatAutomation</title>
<path fill="none" stroke="#546e7a" stroke-dasharray="5,2" d="M897.69,-171.98C932.09,-172.62 977.92,-173.47 1018.59,-174.22"/>
<polygon fill="#546e7a" stroke="#546e7a" points="1018.36,-176.67 1025.41,-174.35 1018.45,-171.77 1018.36,-176.67"/>
<text xml:space="preserve" text-anchor="middle" x="953.92" y="-175.3" font-family="Arial" font-size="9.00">&lt;&lt;include&gt;&gt;</text>
</g>
<!-- UCCombat&#45;&gt;UCSharedView -->
<g id="edge11" class="edge">
<title>UCCombat&#45;&gt;UCSharedView</title>
<path fill="none" stroke="#546e7a" stroke-dasharray="5,2" d="M864.53,-194.24C912.43,-250.32 1034.41,-393.12 1088.31,-456.22"/>
<polygon fill="#546e7a" stroke="#546e7a" points="1086.22,-457.55 1092.63,-461.28 1089.95,-454.37 1086.22,-457.55"/>
<text xml:space="preserve" text-anchor="middle" x="953.92" y="-321.48" font-family="Arial" font-size="9.00">&lt;&lt;include&gt;&gt;</text>
</g>
<!-- UCRuleQuestion&#45;&gt;UCRuleAnswer -->
<g id="edge12" class="edge">
<title>UCRuleQuestion&#45;&gt;UCRuleAnswer</title>
<path fill="none" stroke="#546e7a" stroke-dasharray="5,2" d="M892.94,-89.64C928.41,-89.38 977.74,-89.01 1020.86,-88.69"/>
<polygon fill="#546e7a" stroke="#546e7a" points="1020.62,-91.15 1027.6,-88.64 1020.58,-86.25 1020.62,-91.15"/>
<text xml:space="preserve" text-anchor="middle" x="953.92" y="-91.3" font-family="Arial" font-size="9.00">&lt;&lt;include&gt;&gt;</text>
</g>
<!-- UCVoiceCommand&#45;&gt;UCTranscribe -->
<g id="edge13" class="edge">
<title>UCVoiceCommand&#45;&gt;UCTranscribe</title>
<path fill="none" stroke="#546e7a" stroke-dasharray="5,2" d="M303.27,-237.94C360.9,-255.72 456.77,-285.29 516.32,-303.66"/>
<polygon fill="#546e7a" stroke="#546e7a" points="515.25,-305.89 522.66,-305.62 516.7,-301.21 515.25,-305.89"/>
<text xml:space="preserve" text-anchor="middle" x="404.9" y="-276.36" font-family="Arial" font-size="9.00">&lt;&lt;include&gt;&gt;</text>
</g>
<!-- UCInterpretCommand -->
<g id="node18" class="node">
<title>UCInterpretCommand</title>
<ellipse fill="none" stroke="#29434e" stroke-width="1.2" cx="570.3" cy="-86" rx="87.15" ry="24.75"/>
<text xml:space="preserve" text-anchor="middle" x="570.3" y="-89.05" font-family="Arial" font-size="11.00">Befehl interpretieren</text>
<text xml:space="preserve" text-anchor="middle" x="570.3" y="-75.55" font-family="Arial" font-size="11.00">und Aktion ausfuehren</text>
</g>
<!-- UCVoiceCommand&#45;&gt;UCInterpretCommand -->
<g id="edge14" class="edge">
<title>UCVoiceCommand&#45;&gt;UCInterpretCommand</title>
<path fill="none" stroke="#546e7a" stroke-dasharray="5,2" d="M297.23,-205.33C321.99,-195.01 348.4,-184 348.4,-184 348.4,-184 379.4,-123.5 379.4,-123.5 379.4,-123.5 437.56,-112.02 489.5,-101.76"/>
<polygon fill="#546e7a" stroke="#546e7a" points="489.9,-104.18 496.29,-100.42 488.95,-99.37 489.9,-104.18"/>
<text xml:space="preserve" text-anchor="middle" x="404.9" y="-125.45" font-family="Arial" font-size="9.00">&lt;&lt;include&gt;&gt;</text>
</g>
<!-- UCInterpretCommand&#45;&gt;UCCombat -->
<g id="edge15" class="edge">
<title>UCInterpretCommand&#45;&gt;UCCombat</title>
<path fill="none" stroke="#546e7a" stroke-dasharray="1,5" d="M630.18,-104.44C677.98,-119.41 744.73,-140.32 790.6,-154.69"/>
<polygon fill="#546e7a" stroke="#546e7a" points="789.77,-156.99 797.18,-156.75 791.23,-152.32 789.77,-156.99"/>
<text xml:space="preserve" text-anchor="middle" x="734.56" y="-145.46" font-family="Arial" font-size="9.00">&lt;&lt;extend&gt;&gt;</text>
</g>
<!-- UCInterpretCommand&#45;&gt;UCRuleQuestion -->
<g id="edge16" class="edge">
<title>UCInterpretCommand&#45;&gt;UCRuleQuestion</title>
<path fill="none" stroke="#546e7a" stroke-dasharray="1,5" d="M657.91,-87.28C699.88,-87.9 749.08,-88.62 786.16,-89.17"/>
<polygon fill="#546e7a" stroke="#546e7a" points="785.81,-91.61 792.84,-89.27 785.88,-86.71 785.81,-91.61"/>
<text xml:space="preserve" text-anchor="middle" x="734.56" y="-90.66" font-family="Arial" font-size="9.00">&lt;&lt;extend&gt;&gt;</text>
</g>
<!-- UCDiscordSession&#45;&gt;UCSyncDiscord -->
<g id="edge17" class="edge">
<title>UCDiscordSession&#45;&gt;UCSyncDiscord</title>
<path fill="none" stroke="#546e7a" stroke-dasharray="5,2" d="M338.61,-141.97C361.15,-141.16 379.4,-140.5 379.4,-140.5 379.4,-140.5 430.4,-140.5 430.4,-140.5 430.4,-140.5 450.53,-143.91 475.46,-148.12"/>
<polygon fill="#546e7a" stroke="#546e7a" points="474.9,-150.51 482.21,-149.27 475.72,-145.68 474.9,-150.51"/>
<text xml:space="preserve" text-anchor="middle" x="404.9" y="-142.45" font-family="Arial" font-size="9.00">&lt;&lt;include&gt;&gt;</text>
</g>
<!-- UCDiscordSession&#45;&gt;UCDiscordStatus -->
<g id="edge18" class="edge">
<title>UCDiscordSession&#45;&gt;UCDiscordStatus</title>
<path fill="none" stroke="#546e7a" stroke-dasharray="5,2" d="M321.7,-160.43C371.32,-171.87 430.4,-185.5 430.4,-185.5 430.4,-185.5 461.4,-203 461.4,-203 461.4,-203 482.85,-210.75 506.62,-219.35"/>
<polygon fill="#546e7a" stroke="#546e7a" points="505.56,-221.57 512.98,-221.64 507.23,-216.96 505.56,-221.57"/>
<text xml:space="preserve" text-anchor="middle" x="404.9" y="-187.45" font-family="Arial" font-size="9.00">&lt;&lt;include&gt;&gt;</text>
</g>
<!-- UCPlayerRealtime -->
<g id="node25" class="node">
<title>UCPlayerRealtime</title>
<ellipse fill="none" stroke="#29434e" stroke-width="1.2" cx="570.3" cy="-554" rx="91.92" ry="24.75"/>
<text xml:space="preserve" text-anchor="middle" x="570.3" y="-557.05" font-family="Arial" font-size="11.00">Charakterbogen und</text>
<text xml:space="preserve" text-anchor="middle" x="570.3" y="-543.55" font-family="Arial" font-size="11.00">Karte in Echtzeit nutzen</text>
</g>
<!-- UCMobilePlayer&#45;&gt;UCPlayerRealtime -->
<g id="edge25" class="edge">
<title>UCMobilePlayer&#45;&gt;UCPlayerRealtime</title>
<path fill="none" stroke="#546e7a" stroke-dasharray="5,2" d="M340.76,-554C380.57,-554 428.11,-554 469.51,-554"/>
<polygon fill="#546e7a" stroke="#546e7a" points="469.45,-556.45 476.45,-554 469.45,-551.55 469.45,-556.45"/>
<text xml:space="preserve" text-anchor="middle" x="404.9" y="-555.95" font-family="Arial" font-size="9.00">&lt;&lt;include&gt;&gt;</text>
</g>
<!-- UCPlayerVoice&#45;&gt;UCTranscribe -->
<g id="edge26" class="edge">
<title>UCPlayerVoice&#45;&gt;UCTranscribe</title>
<path fill="none" stroke="#546e7a" stroke-dasharray="5,2" d="M338.27,-306.78C391.31,-309.81 458.84,-313.68 507.17,-316.44"/>
<polygon fill="#546e7a" stroke="#546e7a" points="507.02,-318.89 514.15,-316.84 507.3,-314 507.02,-318.89"/>
<text xml:space="preserve" text-anchor="middle" x="404.9" y="-313.49" font-family="Arial" font-size="9.00">&lt;&lt;include&gt;&gt;</text>
</g>
<!-- UCPlayerVoice&#45;&gt;UCInterpretCommand -->
<g id="edge27" class="edge">
<title>UCPlayerVoice&#45;&gt;UCInterpretCommand</title>
<path fill="none" stroke="#546e7a" stroke-dasharray="5,2" d="M303.26,-281.3C326.09,-271.54 348.4,-262 348.4,-262 348.4,-262 430.4,-198 430.4,-198 430.4,-198 461.4,-125 461.4,-125 461.4,-125 483.19,-117.12 507.19,-108.45"/>
<polygon fill="#546e7a" stroke="#546e7a" points="507.86,-110.81 513.61,-106.13 506.19,-106.2 507.86,-110.81"/>
<text xml:space="preserve" text-anchor="middle" x="404.9" y="-239.56" font-family="Arial" font-size="9.00">&lt;&lt;include&gt;&gt;</text>
</g>
<!-- UCSharedState -->
<g id="node27" class="node">
<title>UCSharedState</title>
<ellipse fill="none" stroke="#29434e" stroke-width="1.2" cx="1433.66" cy="-487" rx="99.88" ry="24.75"/>
<text xml:space="preserve" text-anchor="middle" x="1433.66" y="-490.05" font-family="Arial" font-size="11.00">Karte, Fog of War,</text>
<text xml:space="preserve" text-anchor="middle" x="1433.66" y="-476.55" font-family="Arial" font-size="11.00">Initiative und HP anzeigen</text>
</g>
<!-- UCSharedView&#45;&gt;UCSharedState -->
<g id="edge29" class="edge">
<title>UCSharedView&#45;&gt;UCSharedState</title>
<path fill="none" stroke="#546e7a" stroke-dasharray="5,2" d="M1220.97,-487C1254.29,-487 1291.22,-487 1324.78,-487"/>
<polygon fill="#546e7a" stroke="#546e7a" points="1324.72,-489.45 1331.72,-487 1324.72,-484.55 1324.72,-489.45"/>
<text xml:space="preserve" text-anchor="middle" x="1277.28" y="-488.95" font-family="Arial" font-size="9.00">&lt;&lt;include&gt;&gt;</text>
</g>
<!-- UCSessionLog&#45;&gt;UCTranscribe -->
<g id="edge19" class="edge">
<title>UCSessionLog&#45;&gt;UCTranscribe</title>
<path fill="none" stroke="#546e7a" stroke-dasharray="5,2" d="M322.67,-367.05C378.72,-356.36 457.45,-341.34 510.76,-331.17"/>
<polygon fill="#546e7a" stroke="#546e7a" points="511.19,-333.58 517.61,-329.86 510.27,-328.77 511.19,-333.58"/>
<text xml:space="preserve" text-anchor="middle" x="404.9" y="-357.32" font-family="Arial" font-size="9.00">&lt;&lt;include&gt;&gt;</text>
</g>
<!-- UCSessionLog&#45;&gt;UCSummaryAI -->
<g id="edge20" class="edge">
<title>UCSessionLog&#45;&gt;UCSummaryAI</title>
<path fill="none" stroke="#546e7a" stroke-dasharray="5,2" d="M302.16,-400.23C325.37,-410.16 348.4,-420 348.4,-420 348.4,-420 379.4,-476 379.4,-476 379.4,-476 430.4,-536.5 430.4,-536.5 430.4,-536.5 461.4,-593 461.4,-593 461.4,-593 480.53,-599.91 502.68,-607.92"/>
<polygon fill="#546e7a" stroke="#546e7a" points="501.77,-610.2 509.19,-610.27 503.44,-605.59 501.77,-610.2"/>
<text xml:space="preserve" text-anchor="middle" x="404.9" y="-538.45" font-family="Arial" font-size="9.00">&lt;&lt;include&gt;&gt;</text>
</g>
</g>
</svg>
